/* XPM */
static char *badc8e036c8d4c618cc9d426fae4be57kBRo64u9QRToNhoc[] = {
/* columns rows colors chars-per-pixel */
"32 32 126 2 ",
"   c #605C51",
".  c #6A675D",
"X  c #6D695E",
"o  c #6E6B63",
"O  c #6F6E69",
"+  c #726F68",
"@  c #737167",
"#  c #75736B",
"$  c #7A766E",
"%  c #7C786E",
"&  c #757470",
"*  c #797772",
"=  c #7C7A74",
"-  c #7E7D79",
";  c #817D74",
":  c #817E79",
">  c #7E807D",
",  c #848176",
"<  c #84827C",
"1  c #89867E",
"2  c #8D897F",
"3  c #868581",
"4  c #898681",
"5  c #868885",
"6  c #8C8A84",
"7  c #8F8E89",
"8  c #928E86",
"9  c #908F8A",
"0  c #8F908A",
"q  c #959387",
"w  c #94938C",
"e  c #99968D",
"r  c #9A998E",
"t  c #969691",
"y  c #999792",
"u  c #979893",
"i  c #9C9A95",
"p  c #9E9D99",
"a  c #A19D96",
"s  c #A19F99",
"d  c #9FA09B",
"f  c #A4A196",
"g  c #A3A29C",
"h  c #A9A69E",
"j  c #ADA99E",
"k  c #A3A5A0",
"l  c #A5A4A0",
"z  c #A6A5A0",
"x  c #A6A5A1",
"c  c #A7A6A1",
"v  c #A5A5A2",
"b  c #A8A7A2",
"n  c #A8A7A3",
"m  c #AAA7A2",
"M  c #A9A7A2",
"N  c #A7A8A2",
"B  c #A7A8A3",
"V  c #A8A8A0",
"C  c #A8A9A3",
"Z  c #AAAAA2",
"A  c #ABABA3",
"S  c #ACA9A2",
"D  c #ADAAA3",
"F  c #AAA9A5",
"G  c #ABAAA5",
"H  c #ABAAA6",
"J  c #ACABA6",
"K  c #ACABA7",
"L  c #ABACA6",
"P  c #ACACA4",
"I  c #ADACA7",
"U  c #AEAEA6",
"Y  c #AFAFA7",
"T  c #ABAAA4",
"R  c #AEADA8",
"E  c #AEADA9",
"W  c #AFAEA9",
"Q  c #AEAFA9",
"!  c #AFAEAA",
"~  c #ADADA9",
"^  c #B1ADA4",
"/  c #B0ADA6",
"(  c #B1AEA7",
")  c #B1AEA7",
"_  c #B1AEA9",
"`  c #B0AFAA",
"'  c #B0AFAB",
"]  c #B1AEA9",
"[  c #AFB0AB",
"{  c #B4B0A5",
"}  c #B3B0A7",
"|  c #B0B0A8",
" . c #B1B1A9",
".. c #B1B0AB",
"X. c #B3B3AB",
"o. c #B1B0AC",
"O. c #B2B1AC",
"+. c #B2B1AD",
"@. c #B3B2AD",
"#. c #B3B2AE",
"$. c #B4B1AC",
"%. c #B4B3AE",
"&. c #B5B4AF",
"*. c #B7B4AF",
"=. c #B7B7AF",
"-. c #B3B2AC",
";. c #BAB6AB",
":. c #B9B5AC",
">. c #B8B5AE",
",. c #B9B6AE",
"<. c #B6B5B0",
"1. c #B7B6B1",
"2. c #B7B6B2",
"3. c #B6B6B1",
"4. c #B8B7B2",
"5. c #B9B7B2",
"6. c #BCB9B4",
"7. c #BBBAB3",
"8. c #BFBEBA",
"9. c #BFBEBA",
"0. c #C1BEB5",
"q. c #C1BEB9",
"w. c #C0BFBA",
"e. c #C4C4BC",
"r. c #C3C3BB",
"t. c #C6C5C0",
/* pixels */
"i g +.i i F c F s t n H w F <.! 7 k B B ) a 8 a 8 2 ; y 9 3 9 3 ",
"+.c F s t c ..+.g < F H u l ! ! t p L t m s 8 a 8 ; 8 a 8 s 7 t ",
"t p g g g ~ c g g 3 ~ 2.p ! <.2.5 [ k u q 8 2 r , ; 4 a y y s p ",
"p i i w w i 7 w w 5 i p 3 s l n > 0 7 d j ; ; ; ; ; 8 : : * - : ",
"i : 5 4 < 5 < 5 w i i i 6 d d d 0 t g i g r 1 @ X @ $ 2 4 1 9 w ",
"F g +.' +.2.U ..+.~ h u d d U d g i w g f r 2 2 ; 2 $ q y D i t ",
"y c y 7 4 p i i i w i u d r d > , 5 < + r 2 2 ;   e ; 8 # + 6 7 ",
"p +.g ~ i %.w.4.2.c ~ U Z X.X.r h 4.) ; a ^ f j X 2 4 8 8 m M s ",
"c n ~ +.g t e.K ..g ~ U Z U U V i n D q f ;.{ ;.; ; 8 q q s m s ",
"..8...4.c n +...+.s K K =.d X.r s h D g j f f r X ; 8 e q j ] :.",
"7 g g g i 9 7 g p w h i r q > > a h h 8 e 8 , ; , 2 2 q * 8 s a ",
"n i g %.%.F K +.~ N U i A r.f X.#.q.) %.) 8 q q 1 ; X ; * : 8 y ",
"u 9 7 p 7 u g g w f i q d 8 f a s w i h < , q q 1 @ # = + + * = ",
"! ~ l l l +.2.c w U X.7.Y < r.=.] 6.D ] 2 w { g d = ..%.: < p 9 ",
"~ <.6.H n 4.6.K h X.X.7.Z q 7.7.5.q.*.5.r q 6 r q , ' ] t 3 y p ",
"' <.2.2.i w.' ~ d =.| X.X.d h V ] ] / 5.d d r r d , n #.l 7 t y ",
"L =.B =.d 7.7.[ a { ) 6.] j s h / K g *.a Z a a q : n n 6 w p i ",
"L [ [ =.g =.7.g 6 r.m *.$.y *.' 2.K #.2.w %.&.h a w n i < : 3 3 ",
"B u 6 d 0 A h 8 o i a q e + t s s n i 4 o 8 r 8 6 ; 4 y 3 = = < ",
"d 5 > B C A h h f 7 *.) *.^ Z 6 s g w = h s j . 1 m a y d g 5 & ",
"k k %.7.2.g U 9.U U 0.X.7.9.U s ' +.g f ..Z 0.g h h 9 a i 6 - & ",
"k g t p U 7.7...Z w =.=.9.4.7.i Z 9.&.q D ) ;.q a D 8 y p 5 - < ",
"s y 0 N g F F +.i > d 0 s t y w D j y 8 e 7 1 6 1 w y s y : = O ",
"p i g Z i N 2.L U %.C h s s y n D D U y 9 ; g a y e e a a 3 9 w ",
"n s l s i n F ' p p v l ' F s K l ] p p t 5 p p s i t w 6 : 8 9 ",
"i i - t y p l w 9 * y s t 6 s 9 4 y 9 * t t 5 u a w < * t 9 : 4 ",
"l %.s n i p n K #.y m ] K n H i q.) F l F K v v t K n y ] l w y ",
"n l i ' <.%.F 4.K F F $.#.2.] ] g m v t l p p v s g 3 : l a w : ",
"d ~ p F <.9.6.6.*.y m ] *.] 0.a y m *.: p v p p v ~ 5 * y 9 9 9 ",
"0 7 u k t 3 - F l 7 s ] y 6 s a s 4 4 l v p 5 > p p p 5 t 9 3 7 ",
"u 0 o.o.o.v 5 l p y s ] i s ] ] #.n * l p v v > ' v ! v p l t p ",
"0 i o.~ ~ l d v l m ] m y y ] m ] p t #.v v v 5 p v t t p y > 5 "
};
