/* XPM */
static char *_40149669166423fb712dfc77f5a325cuoA2cCo6vTubrZaV[] = {
/* columns rows colors chars-per-pixel */
"64 64 256 2 ",
"   c black",
".  c #010101",
"X  c #020202",
"o  c gray1",
"O  c #040404",
"+  c gray2",
"@  c #060606",
"#  c #070707",
"$  c gray3",
"%  c #090909",
"&  c gray4",
"*  c #0B0B0B",
"=  c #0C0C0C",
"-  c gray5",
";  c #0E0E0E",
":  c gray6",
">  c #101010",
",  c #111111",
"<  c gray7",
"1  c #131313",
"2  c gray8",
"3  c #151515",
"4  c #161616",
"5  c gray9",
"6  c #181818",
"7  c #191919",
"8  c gray10",
"9  c #1B1B1B",
"0  c gray11",
"q  c #1D1D1D",
"w  c #1E1E1E",
"e  c gray12",
"r  c #202020",
"t  c gray13",
"y  c #222222",
"u  c #232323",
"i  c gray14",
"p  c #252525",
"a  c gray15",
"s  c #272727",
"d  c #282828",
"f  c gray16",
"g  c #2A2A2A",
"h  c gray17",
"j  c #2C2C2C",
"k  c #2D2D2D",
"l  c gray18",
"z  c #2F2F2F",
"x  c gray19",
"c  c #313131",
"v  c #323232",
"b  c gray20",
"n  c #343434",
"m  c #353535",
"M  c gray21",
"N  c #373737",
"B  c gray22",
"V  c #393939",
"C  c #3A3A3A",
"Z  c gray23",
"A  c #3C3C3C",
"S  c gray24",
"D  c #3E3E3E",
"F  c #3F3F3F",
"G  c gray25",
"H  c #414141",
"J  c gray26",
"K  c #434343",
"L  c #444444",
"P  c gray27",
"I  c #464646",
"U  c gray28",
"Y  c #484848",
"T  c #494949",
"R  c gray29",
"E  c #4B4B4B",
"W  c #4C4C4C",
"Q  c gray30",
"!  c #4E4E4E",
"~  c gray31",
"^  c #505050",
"/  c #515151",
"(  c gray32",
")  c #535353",
"_  c gray33",
"`  c #555555",
"'  c #565656",
"]  c gray34",
"[  c #585858",
"{  c gray35",
"}  c #5A5A5A",
"|  c #5B5B5B",
" . c gray36",
".. c #5D5D5D",
"X. c gray37",
"o. c #5F5F5F",
"O. c #606060",
"+. c gray38",
"@. c #626262",
"#. c gray39",
"$. c #646464",
"%. c #656565",
"&. c gray40",
"*. c #676767",
"=. c #686868",
"-. c DimGray",
";. c #6A6A6A",
":. c gray42",
">. c #6C6C6C",
",. c #6D6D6D",
"<. c gray43",
"1. c #6F6F6F",
"2. c gray44",
"3. c #717171",
"4. c #727272",
"5. c gray45",
"6. c #747474",
"7. c gray46",
"8. c #767676",
"9. c #777777",
"0. c gray47",
"q. c #797979",
"w. c gray48",
"e. c #7B7B7B",
"r. c #7C7C7C",
"t. c gray49",
"y. c #7E7E7E",
"u. c gray50",
"i. c #808080",
"p. c #818181",
"a. c gray51",
"s. c #838383",
"d. c #848484",
"f. c gray52",
"g. c #868686",
"h. c gray53",
"j. c #888888",
"k. c #898989",
"l. c gray54",
"z. c #8B8B8B",
"x. c gray55",
"c. c #8D8D8D",
"v. c #8E8E8E",
"b. c gray56",
"n. c #909090",
"m. c gray57",
"M. c #929292",
"N. c #939393",
"B. c gray58",
"V. c #959595",
"C. c gray59",
"Z. c #979797",
"A. c #989898",
"S. c gray60",
"D. c #9A9A9A",
"F. c #9B9B9B",
"G. c gray61",
"H. c #9D9D9D",
"J. c gray62",
"K. c #9F9F9F",
"L. c #A0A0A0",
"P. c gray63",
"I. c #A2A2A2",
"U. c gray64",
"Y. c #A4A4A4",
"T. c #A5A5A5",
"R. c gray65",
"E. c #A7A7A7",
"W. c gray66",
"Q. c #A9A9A9",
"!. c #AAAAAA",
"~. c gray67",
"^. c #ACACAC",
"/. c gray68",
"(. c #AEAEAE",
"). c #AFAFAF",
"_. c gray69",
"`. c #B1B1B1",
"'. c #B2B2B2",
"]. c gray70",
"[. c #B4B4B4",
"{. c gray71",
"}. c #B6B6B6",
"|. c #B7B7B7",
" X c gray72",
".X c #B9B9B9",
"XX c gray73",
"oX c #BBBBBB",
"OX c #BCBCBC",
"+X c gray74",
"@X c gray",
"#X c gray75",
"$X c #C0C0C0",
"%X c #C1C1C1",
"&X c gray76",
"*X c #C3C3C3",
"=X c gray77",
"-X c #C5C5C5",
";X c #C6C6C6",
":X c gray78",
">X c #C8C8C8",
",X c gray79",
"<X c #CACACA",
"1X c #CBCBCB",
"2X c gray80",
"3X c #CDCDCD",
"4X c #CECECE",
"5X c gray81",
"6X c #D0D0D0",
"7X c gray82",
"8X c #D2D2D2",
"9X c LightGray",
"0X c gray83",
"qX c #D5D5D5",
"wX c gray84",
"eX c #D7D7D7",
"rX c #D8D8D8",
"tX c gray85",
"yX c #DADADA",
"uX c gray86",
"iX c gainsboro",
"pX c #DDDDDD",
"aX c gray87",
"sX c #DFDFDF",
"dX c gray88",
"fX c #E1E1E1",
"gX c #E2E2E2",
"hX c gray89",
"jX c #E4E4E4",
"kX c gray90",
"lX c #E6E6E6",
"zX c #E7E7E7",
"xX c gray91",
"cX c #E9E9E9",
"vX c #EAEAEA",
"bX c gray92",
"nX c #ECECEC",
"mX c gray93",
"MX c #EEEEEE",
"NX c #EFEFEF",
"BX c gray94",
"VX c #F1F1F1",
"CX c gray95",
"ZX c #F3F3F3",
"AX c #F4F4F4",
"SX c gray96",
"DX c #F6F6F6",
"FX c gray97",
"GX c #F8F8F8",
"HX c #F9F9F9",
"JX c gray98",
"KX c #FBFBFB",
"LX c gray99",
"PX c #FDFDFD",
"IX c #FEFEFE",
"UX c white",
/* pixels */
"^ ( =.U R @.K ~ I } } ! o.0.+.z c 1.9.8.4.4.v.x./ ( :.#.M S ,.p.7.l.a.k.n.u.6.#.@.,.+.U M z V Q l Y :.Q S E N b v s b d k g A b ",
"I ~ *.U W *.T ^ @.#...{ +.*.) N V 5.u.r.2.%.t.d.( } o.Y c P ' L / =.$.:.1.%.%. ._ T N M K F c z D k Z D T / C S n B Z D N J D x ",
"R T o._ { X.J _ O.' ` O.o.E M k J X.{ / R I O.4.;.&.( A S Q J u x I Y Q I V D m B b x A Y D V T ^ z p s M G n C @.$.Y F n { ' Q ",
"` J / X.+.R x ( ) I L ! E C n C L K b v Z S U ' &._ S S Q R S S [ :.4.r.3.&.:.| J C V W { /  .y.e.6.$.I B K ! [ r.q.` v F &.4.*.",
"K S L R W Z f S B l p y u h A E F F H P Q P M D H G S P ! U I ` R ` o.4.3.8.k.0.5.T z ~ u.f.e.a.1.q.4.| S b Q $.-.:.#.c +.=.5.` ",
"p A C f l V b k s j x b B K ~ ' U T ~ K G A x L T O.<.$.' [ } _ P I ~ #.$.9.D.x.d._ m { m.A.u.6.5.1.<.p.;.P O.k.5.6.4.v ,.{ o.S ",
"s C c p j M A Z T ^ o.<.5.1.1.4.-.} ^ B K } ] 1.q.y.z.a.-.,.7.%.U U ) #.] %.z.e.4...~ *.l.z.y.p.7.:.O.8.o.n ] f.f.a.,.l X.~ / G ",
"J V g B G x A ' =...o.>.<.*.1.i.x.1.o.^ 8.I.B.F.m.1.8.f.4.6.j.g.~ ` ;.w.@.&.h.5.:.O.] =.d.l.h.m.N.Z.t.2.R j X.d.<.6.] z ' ` ! E ",
"f.U z M b L $.<.K R L P U B F *.:.;.J =.f.y.%.<.6.#.O.-.3.e.w.;.J @.~ 7.J.F.V.O.i.:.! ] D.b.n.p.M.j.e.#.6.A =.7.9.t.:.V C ) G x ",
"( O.T b / <.-.o. .[ W J F K X.f.+./ V O.O.&.<.6.e.4.8.q.2.-.X.W W 1.=.f.k.-.9.3.U.i.~ T e.<.0.q.5.u.s.*.:.Z 1.g.6.0.%.n M _ T G ",
"H 9.Q w ) 3.` ( 2.%.#.*.<.u.c.x.,.E A &._ +.8.1.) [ :.0.4.3.3.=.W :.+.2.5.@.9.9.;.:.^ ( d.d.s.4.-.w.g.,.>.H ,.k.8.q.%.b z P C N ",
"@.i./ c @.,._ $.,.,.i.z.g.m.N.w.k.;.~ 7.;.-.*.{ {  .:.5.>.,.3.>.J -.} ! } >.u.<.,.t.' K ,.l.x.1.7.3.e.5.8.E #.d.6.7.#.v d m a p ",
"%.&.Q I @.*.} X.| *.t.q.@.=.7.-.%.&.Y <.t.q.1.u.6.<.4.5.*.#.O.` Z +.| Y Q +.5.2.s.f.) W <.d.s.8.j.6.y.d.t.E _ j.0.4...l a v d l ",
"@.} I M F ] { U Q Q _ } +.,.:.[ 7.s. .;.;.' Q 3.1.*.-.-.o.{ / J M M n U @.;.,.w.s.5.I #.y.e.0.x.C.f.N.n.5.D H f.z.e...k a n z A ",
"*.%.E n J { ] U U P J ( 3.0.$._ _ / N [ { | $.q.+.' ( Q D V N j b y i J *.=.[ O.g.8.V L Y W ] e.6.:.0.>.^ n c ,.j.7.[ x l C c S ",
"H Q D D X.| G G J ] [ ) ' E R #.9.E j / J P K j V k h s r h Z D M J ! T U D g z m ' c z g C N S x j N l h m l ' ;. .E v B L M D ",
"M n M N ! G X...E ..] :.+.' J &.W m t M a x d x v i c Z x G $.4.} G #. .N M z z j K c _ -.*.U C v x h g m S V x x M c f x H J M ",
"Z D S K E K [ ( ..o.P ( ] U V L V H L W H G V C D M J Y J ] q.s.i.=.9.1.;.y.1...H C B f.G.a.[ T m E V V +.{ J {  .O. ._ `  .| ) ",
"j N m Y H Y ` Q E W l c J x P I W ` ( F I G D Z H H U R ( 4.v.v.l.v.B.t.e.M.v.j.9.^ J f.p.<.$.+.T ~ Q o.0.;.| ,.@.%.-.:.;.$...] ",
"U ( ! ;._ &.6.;.[ %._ P Q D t.l.l.e.<.} q.,.:.$.W T K J  .d.n.i.{ y.F.D.A.n.r.7.~ D R s.:.<.i.8.&.N | h.;.+.2.| T E ` #.=.X.^ T ",
"-.=.@.t...:.y.8.-.6.=.P Z M r.z.%.W / { w.%.=.;.>.o.K A O.d.q.{ y.0.#.+.1.w.l.D.' S T s.&.2.z.i.,.n { l.&.{ -.~ / E Q { O.} ! U ",
"+.~ / ,.^ ( 4.,.g.p.r._ L } a.k.-.~ o.6.7.=.p.C.h.2.J m ..6.` l %.&.@.2.<.#.2.4.v.~ G i.1.,.t.8.@.T ~ 2.9.X.(  .@.} ^ Q ~ ~ R L ",
"+.F ~ >.[ Y 6.4.O.] -.E N <.8.u.g.=.7.c.,.0.D.T.l.2.D n X.<.T d 2.5.,.4.} ( ,.X.0.E K k.g.p.w.#.o.E I +.6.+.( X.( [ ` T K P K A ",
";.S _ <. .Z >.=.P P 2.{ Z d.t.m.f.;.t.P.q.V.Y.v.a.:.F Z ;.0.] F u.q.2.y.9.t.f.I x.7.{ 1.+.6.e.@.-.M K *. .| $.~ M ~  .) Y T P A ",
";.] ` p.f.h.#.E H F  .S E =.z.v.j.`.U.k.S.C.s.v.g.i.^ E N.x.x.N.c.,.] #.,. .o.i.0.O.G 4.-.g.8.w.2.R j G @.| H C T ) #.( U Q J K ",
"4.3.T -.D.S.:.p.N z S M V 6.m.N.l.k.z.n.x.y.r.j.k.e.Q ) P.Z.k.p.} <.$.~ ..8.9.,.-.%.K i.u.g.<.-.] I x M _ } I N z G [ E T ] Q R ",
"8.3.7.A.x.l.i.x.] K H Y A j.D.B.m.u.b.L.x.i.f.a.-.{ m K b.d.q.2.1.4.=.$.4.y.k.Z.u.f.P q.w.+.T S ( J v F ] _ L L J ^ o.T Y o.] / ",
"@.#.p.A.&.<.8.;.+.I Y I Z w.k.0.i.h.M.n.f.p.e.,.1...D E g.8.0.q.6.2.6.j.m.y.q.n.B.F.K 3.s.&.&.#.*.G v [ ,.~ H  .-.>.*.H S  . .' ",
"o.e.;.*.<.h.3.;.] G ) F Y <.s.,.s.C.l.i.v.s.4.i.c.:.T ] k.2.,.&.0.v.a.%.:.s.k.s.n.M.G ,.x.<.9.9.;.G b  .6.' R =.>.&.} n b _ ` / ",
"O.1.5.9.-.l.t.|  .~ O.F } 3.s.8.B.M.0.i.D.t.1.U.k.] n ! g.>.o.R :.y.:.T ) 6.p.e.e.4.D <.z.*.@.] ^ F n T @...] #.O.` ! m N Q L D ",
"W S @.u.P ..*.n ` _ R k R >.>.5.d.3.*.e.h.:.&.z.0.U k E e.#.#.] G D R >.t.%._ @.1._ F >.j.:.o./ G V b G ) ) _ $.[ T Y S K ! A N ",
"/ G M ) ~  .Q L Q ] v y D 8.=.p.8.-.9.j.y.6.4.-.&.F j G } F ' +.&.E R 7.z.4.1.V.j._ H { $.Y N f P b x Y _ H U <.W V A A U ( J J ",
"F z Q S @.2.X.^ O.P S c J ,.<.O.] 2.f.0.f.t.| e.w.D b Y @.9.w.k.8.r.5.M.Z.d.G.P.;.:.m ! ..j A [ Q Z G m ~ ' $.E D &.W n ` / m P ",
"k m U _ _ C K W ) K Q U P | %.2.5.u.y.#.<.6.@.d.e.[ R J O.N.M.r.h.G.Q.(.m.:.>.5.W ^ x | q.| &.>.L J G K P | ] F ! $.R v L F l S ",
"c G h P B y m m P z S G A H C F B P R H _  .! $.O.) ( H _ l.c.9.6.p.N.a.-.%.>.f.J J v ..8.#.$.! F I D W C ' T Z E ~ F c b k d b ",
"( @.S C y x N x H B W T D G n x x z l b F m p b P B R Y F Y ! ....#.p.5.,.8. .X.P J N E Q K P f A A S E V K H G M x b M x j c M ",
"$.>.,.} c S z U o.7.B.q.} -.8.u.4.) b m D S / <.3.X.4.6.} K V E M B ) T ! X.H Z ( / Y L M m K Z C M / ] ) D E Q V k b Z M A E Q ",
"[ A ] =.] I f ` D.Y.`.x.w.D.R.U.M.3.H C L | v.Q.S.k.V.b.p.9.[ U Y ( &.$.,.d.c.Z.t.y.1.[ P F Y ) G ~ y.e.e.O.2.=.} R J D D ! @.%.",
"..v C { $.H K =.).F.Z.f.x.~.H.s.b.k. .H D X.x.i.i.7.a.e.9.e.} Z ' 1.i.M.B.x.m.x.b.n.u.*.+.( K ( Y 9.L.m.i.l.C.a.5.*./ F L [ $.$.",
"w.;.{ { ` h *.z.N.p.c.b.Z.Y.v.q.3.k.$.S C :.A.2.7.=.w.w.2.;./ K q.s.5.d.g.q.l.u.2.7.;.+.6.%.P ` I b.T.z.%.F.Y.l.7.4.] F Y } } _ ",
"` X.$.e.P s q.M.#.3.L.S.s.w.,.l.u.k.9.V c u.>.0.2.2.9.9.4.3.o.F t.Q :.>.2.>.7.$.6.^ L K ` v. .M 5.(.B.5...L.5.%.7.o.^ Z ) [ o.! ",
"` @.X.#.x i 9.z.*.j.S.C.c.v.S.C.C.q.{ m ` x.;.5.d.q.8.6.,.>.#.Q E M @.5.6.e.r.,.} A ` u.g.l.Y A g.F.c.<.-.j.e.z.a.+.Y z T ~ _ G ",
"{ _ S S g v &.{ 9.Z.0.%.@.6.F.d.y.` F n ,.e.o.e.r.2.4.9.>.| Y v ! _ t.z.4.0.&.' T Q 2.p.0.p.I F f.u.p.-.i.g.0.9.v.%.K d H P Y n ",
"Q Y V F m b R B 6.d.*.! / <.b.u.7.R B m r.7.o.e.z.r.i.j.0. .K l ` :.k.b.=.0.@.| ` @.6.-.] -.F U r.B.(.b.z.N.m.n.g.+.K f D S H v ",
"S ~ X.+.D y B Q  .O.5.,.9.m.c.M.M. .N c y.d.6.9.D.d.y.t.:.] R F o.6.p.0.' ,...+.=...&.1.%.o.m ..L.Z.N.l.j.T.N.k.&.! G h V c B c ",
"J ! | | H s n ) [ R %.@.=.0.%.9.7._ m l ` 1.i.g.g.0.9.7.%.] E A $.<.7.%.[ ;.o.&.-.:.>.&.>.t.^ -.T.9.;.0.4.8.` W K N C j m s x l ",
"H G A M C C m F / J Z M C K L W Z N n A z R 3.a.i.r.p.y.<.@.( Z ! ( %...5.e.3.4.o.t.w.| ;.B. .' 9.:.c.9.~ x V T N x C v Z f c c ",
"j V V a k A M C N A u c G L } T n k c ( b Y O.X.s.t.8.%.) ( W B } ' ,.@.p.4.{ ! | 1.9.7.s.k.V V 7._ ;.n G G { S Z n G C P c N N ",
"g v l V N h N N G k V b L B B A n Z K U Y ! { $.$.) P ) Q I H x o.>.y.g.y.>.X.{ 5.3.4.<.;.-.( j G B H n v F m C J H v J n D c N ",
"u c z G ! ` *.+.%.q.f.~ A N I J Y T R T R T J C c m F P x p b V Y H N x v G ` &.| @.;.-.{ K c d n M z l d N | o.O.| Q E A C M S ",
"b S R 5.d.6.3.=.2.n.D.| C x Q ^  .$.*.#.o.} Q D Y i 5 t V T R N C A D S C M c l H W I B v l l B z S Z Q J I 9.;.<.&.$.` Q A H P ",
"v b U a.c.#.] [ >.2.7.@./ l ! #.8.j.B.b.h.g.g.d.l.=.X.Z x b U / %.%.@. .[ _ Q P h B h w b R ~ ^ F Z P ^ P ^ &._ $.| $.' X.Y ~ W ",
"h B P =.2.+.*.*.%.%.:.3.*.M [ <.@.-.<.,.,.4.q.t.7.o.2.L F ! r.H.s.d.a.u.g.N.D.S.P K R @.w.t.0.e.9.R / Z G ,.*.1.*.] | / #.) } _ ",
"g `  .` ` +.*.Y J %.1.=.} N %.,.w.;.+.=.3.5.6.0.B.] [ v { 6.t.7.-.5.0.7.9.r.w.4.) h A 4.7.| +.q.m...$.D _ c.3.b.7.@.[ /  .[ | [ ",
"x ' _ P F J S 3 f  .O.! K c ;.#.<...| ;.:.o.$.9.0.P ..n o.y.M.C.Z.Z.k.4.-.4.t.y.r.D E p.u.9.l.b.4.#.@.F [ 5.( 6.:.@._ } ' [ / ) ",
"~ ~ D J H B S v V | ! J H z *.| ' ' =.e.>._ &.n.z.} 7.F +.y.A.T.q.u.q.=.%.7.g.z.<.V E 0.d.U.^.q.>.r.%.J ( ^ A X.~ _ ~ #._ { U R ",
"c T P b C I Z g n ! @.S n v ~ _ 1.6.X.~ O.,.9.c.a.o. .B <.N.c.c. .E 7.s.f.V.y.4.[ b _ u.k.c.z.M.s.9.w.c S j S L H G W } / N l M ",
"V K Z z b m x c L /  .C n c ~ { | ,.3.2.u.v.V.S.9.~ T g O.s.w.r.f.1.*.q.y.8.0.4.E a ` f.p.w.2.*.:.7.<.Y n D B E [ [ ' Q F b c n ",
"M C m v n j f N A J ) K K N ^ ..1.r.s.7.:.q.p.5.2.Y L b &.l.i.l.j.C.w.j.l.1.0.>.$.y K 4.,.7.5.X.w.2.` v v Y V A L U F x f l c k ",
"d m V V C c h n v c P H U C { 5.;.q.l.r.-.t.l.3.^ c v g / 3.+.3.^ 8.=.+.%.} | ] E 8  .Z.p.u.t.#.p.:.%.e Z b N h k g a d c N b h ",
"u C F m M M z k S n H Z F b  .p.E #.i.t.>.0.w.} ` K I A ! =.! o.! K Z c U _ E ;.J a 7.T.9.2.f.f.*.5.j.Z Z s A I I b l J ) ! H Z ",
"j G S k z n c l D V W R W v Y X.L ` @.] R ^ ~ Z G C S v C } B K 6.m m W 1.7.X.g.%.v ..a.;.2.f.h.6.i.4.H c ^ ..8.{ H A _ %.../ ^ ",
"c V M b C B b B M b Y E ( n m N A Y L C J ! ` } Y Y L N H 3.R W ] M P 2.p.9.;.2.) f ` z.b.l.9.%.c.w.( h J q.e.t./ E ~ X.*.@.{ ` ",
"k k c J ~ H N K D l c j S z N N x G Z B R Q Y ) T U V d b :.F N s I } 8.;.@.q.| Z k &.B.c.i.q.d.t.&.+.h %.0.t.#.^ o.>.<.:.&.} W "
};