/* XPM */
static char *_a3c823144ec47218f8454ddca666756UosDewluhg6QRJLg[] = {
/* columns rows colors chars-per-pixel */
"32 18 179 2 ",
"   c #4C230D",
".  c #5D310E",
"X  c #572E18",
"o  c #5D2F18",
"O  c #5F321A",
"+  c #632D11",
"@  c #6F2F14",
"#  c #6F2E18",
"$  c #643615",
"%  c #693116",
"&  c #6B3916",
"*  c #66321B",
"=  c #6B351B",
"-  c #6C3B1D",
";  c #713719",
":  c #723A1D",
">  c #7A3D1D",
",  c #5D3421",
"<  c #613625",
"1  c #6E3723",
"2  c #663921",
"3  c #6A3A24",
"4  c #6D3D2A",
"5  c #753E23",
"6  c #7A3D21",
"7  c #723F2C",
"8  c #72401F",
"9  c #7B411C",
"0  c #6F4026",
"q  c #734224",
"w  c #7D4324",
"e  c #73442B",
"r  c #7D4529",
"t  c #7D492E",
"y  c #724434",
"u  c #7F4D32",
"i  c #803F1F",
"p  c #8D461A",
"a  c #B1571B",
"s  c #834524",
"d  c #8B4723",
"f  c #834A27",
"g  c #8B4B25",
"h  c #82442B",
"j  c #834B2C",
"k  c #8C4C2A",
"l  c #924D26",
"z  c #9F4E21",
"x  c #914E2E",
"c  c #8D512D",
"v  c #955127",
"b  c #9C5425",
"n  c #93532C",
"m  c #9C552C",
"M  c #864634",
"N  c #854C31",
"B  c #894D31",
"V  c #954A35",
"C  c #865131",
"Z  c #8E5332",
"A  c #86523A",
"S  c #945433",
"D  c #9C5533",
"F  c #975932",
"G  c #9C5934",
"H  c #92543F",
"J  c #9E5439",
"K  c #9D5B3B",
"L  c #A64E2A",
"P  c #A45325",
"I  c #AD5B27",
"U  c #A2542B",
"Y  c #A8552D",
"T  c #A35B2C",
"R  c #AC5E2C",
"E  c #B05C2D",
"W  c #A55434",
"Q  c #A85630",
"!  c #A45C32",
"~  c #AA5D33",
"^  c #A25C3A",
"/  c #A85F3E",
"(  c #B45E35",
")  c #BA5F39",
"_  c #9F6035",
"`  c #A96327",
"'  c #B4632E",
"]  c #B9652E",
"[  c #BE6B2F",
"{  c #A46236",
"}  c #AB6235",
"|  c #A66339",
" . c #AC633A",
".. c #AD693C",
"X. c #B46435",
"o. c #BC6631",
"O. c #B66837",
"+. c #BD6C35",
"@. c #B2653A",
"#. c #BA663B",
"$. c #B66A3C",
"%. c #BC6D3B",
"&. c #BD7137",
"*. c #BE713C",
"=. c #C46A2C",
"-. c #CB6E2B",
";. c #D8762F",
":. c #C06B34",
">. c #CE6F37",
",. c #C36B3C",
"<. c #C47336",
"1. c #CA7436",
"2. c #CE7C37",
"3. c #C4733B",
"4. c #CB743B",
"5. c #CD7B3D",
"6. c #D47437",
"7. c #D17F36",
"8. c #DA7932",
"9. c #D2743D",
"0. c #D37B3D",
"q. c #D87F3D",
"w. c #A75D42",
"e. c #A76141",
"r. c #AC6542",
"t. c #A96848",
"y. c #B16742",
"u. c #BD6744",
"i. c #B56D42",
"p. c #BB6C44",
"a. c #BF6D48",
"s. c #B77046",
"d. c #BC7146",
"f. c #BD724A",
"g. c #C36C44",
"h. c #C56D49",
"j. c #C27444",
"k. c #CA7342",
"l. c #C67B42",
"z. c #CF7F42",
"x. c #CF7F40",
"c. c #CB7844",
"v. c #CE7F47",
"b. c #C97941",
"n. c #C2754B",
"m. c #C7724D",
"M. c #C37648",
"N. c #CB764D",
"B. c #CD7649",
"V. c #C5784C",
"C. c #CB7949",
"Z. c #C97C48",
"A. c #D07642",
"S. c #D17840",
"D. c #D07B42",
"F. c #D37F41",
"G. c #D37944",
"H. c #D37C43",
"J. c #D87D46",
"K. c #D97E42",
"L. c #D67A49",
"P. c #D07F48",
"I. c #C67750",
"U. c #C87650",
"Y. c #CF803E",
"T. c #D4813F",
"R. c #D1813A",
"E. c #DD863F",
"W. c #E28134",
"Q. c #E3853C",
"!. c #D48342",
"~. c #D68441",
"^. c #D88444",
"/. c #DD8543",
"(. c #DC8945",
"). c #D48248",
"_. c #D08448",
"`. c #DE8648",
"'. c #E38A4C",
/* pixels */
"$ 8 : s w s l m V P ` 4.c.%.5.3.2.3.*.$.V S | G r.G D x S r q 2 ",
"- 5 r B s s m ! d U ! +.P.i.I $.~.+.+.l.r.^ K K S e.^ x Z C e e ",
"= : f s > x ^ m b U J X.v.s.z } z.3.<.3.$.r.F M k r.F g F j t e ",
"* + w S s k m ! R R D X.%.y.X.} z.).5.<.O.f.^ h x ^ G d { k t 7 ",
"* % s S d d l ~ Q =.+.,.( p.D.j.R.^.k.,.#.M.y.^ / ^ t.n _ F r 4 ",
"* 5 k n l G ! U L =.<.,.) g.1.3.7.T.#.u.O.j.f.d.f.e.k S G n j 4 ",
"1 : g | !  . .U ( 4.%.D.A.C.6.4.0.F.( u.+.c.U.j.d.G @ Z G k N y ",
"1 : d m p m @.U ' ,.Q D.2.+.9.4.G.4.Y a.&.3.m.g.j.D N B S k = < ",
"5 ; s D # M ~ v ~ a ' N.L.%.[ 4.J.4.%.) H $.j.u.V.i.p.G k j * 3 ",
"5 ; w D 6 h U m W >.+.,.H.3.+.k.0.5.,.o.k m $.a.j.} @.! k r A 2 ",
"= ; > m k s P D Q 6.] o.K.3.+.B.0.~.h.0.| ~ j.I.j.~ f.{ g r t e ",
"= w s U n k E m +.;.[ k.G.3.0.`./.(.g.Q.l.u.b.f.j.$.! ^ n r u e ",
"6 k g T m n +.U ] W.0.G.9.3.(./.E.~.#.Q.l.h.b.f.M.i.! G s 5 u 4 ",
"w s s b v n :.U P 8.5.F.~.5.5.4./.Y.@.q.j.B.j.r.i.p.y.s > : 0 e ",
"& : = d k n ] m U -.+.b.'._.1.4.'.b.} 3...k.O.D ~ i.m > C q e 2 ",
". - * i j Z R l } =.X.#.B.C.1.0.K.&.T X.G b.%.w.} ! F c j t 3 O ",
"X = O : 9 f T l ~ o.] i.~ +.F.<.z.$.~ '.{ *.d...| k F N g q - , ",
"  + o : 9 w m d b I I $.! +.F.3.5.$.@./...$.i.{ G f k r g q - , "
};
