/* XPM */
static char *_11691612620[] = {
/* columns rows colors chars-per-pixel */
"100 100 83 1 ",
"  c #55250F",
". c #58260F",
"X c #5E2C0D",
"o c #5D2611",
"O c #562E14",
"+ c #5C2E14",
"@ c #572E1A",
"# c #5C2F18",
"$ c #563117",
"% c #5C3215",
"& c #573218",
"* c #5D331B",
"= c #5E391D",
"- c #612D0E",
"; c #622E13",
": c #642F19",
"> c #633315",
", c #693616",
"< c #663817",
"1 c #6B3816",
"2 c #63351B",
"3 c #69361C",
"4 c #65391D",
"5 c #6B3A1D",
"6 c #723D1D",
"7 c #783E1A",
"8 c #5E3421",
"9 c #5E3A23",
"0 c #563B2C",
"q c #5E3B2B",
"w c #633621",
"e c #6B3621",
"r c #653A23",
"t c #6B3C23",
"y c #653C2A",
"u c #6B3E2A",
"i c #703723",
"p c #723D23",
"a c #793F22",
"s c #723E29",
"d c #783F2C",
"f c #663F30",
"g c #6C3F34",
"h c #75411E",
"j c #7D431E",
"k c #5F4535",
"l c #664124",
"z c #6D4125",
"x c #66412C",
"c c #6D422B",
"v c #6D4A2C",
"b c #734125",
"n c #7A4224",
"m c #73442C",
"M c #79462C",
"N c #76482E",
"B c #7A492E",
"V c #664132",
"C c #6C4433",
"Z c #6E4834",
"A c #67473C",
"S c #6B473A",
"D c #6C483C",
"F c #734532",
"G c #7A4532",
"H c #754933",
"J c #7A4B34",
"K c #754439",
"L c #7A4638",
"P c #744A3A",
"I c #7B4E3A",
"U c #7F5137",
"Y c #7E513B",
"T c #764F40",
"R c #7C5242",
"E c #80492E",
"W c #804E34",
"Q c #804D38",
"! c #835136",
"~ c #82533B",
"^ c #855741",
"/ c #835847",
"( c #835C4D",
/* pixels */
"N~JJ~Nu^JH~LFIscHxzcxNHxcHcIIemRHIHruHmKFwIJcFmwNNxNFrZVZFFF~QHQuKUcCPFIKyPCqffgPKK^RP(IgIPR(PyDAAAS",
"N!JJYNu~HNIJFIFFJxxcxZHcFHmHIyd^IHHwuIcHmwKJuFcwFHxHZyZVZPFF~IJImHIcFICTKySCqffgHFFIUFRPfPPIRSqSAAAT",
"NUBUYNc^JF~LHQFFYxcccFHcFHuIIug^FHLwuHmHFwHIuFmwHHzHZxZcVFFFUQGWuKIuCICTPyFCqCygIFuIFCRFgIPPRSqTTAgA",
"NUUN!Nz~NmIFLIFKYxyccHHcFIsIIem^FFF2uIFHFrIIcHFrHFzNFxZVZFFZIWIQcKIcFPuIPyKCyCffPFuPCuICgTPPRDyTAkTA",
"NUJJUNt^mmIFFImFIxrvcHHxFHmIIeFQmFFwuIcHFwIIcKmrHHxFHxZVCPCFIIJQuKYFFHCPPyKCySffIFuHCuPFfRRTRCqPAAAA",
"NUJNUvc~mmLsmIFFJxrxcFFtmImHIyFQCFFwtHCHc#FHtFuwUNlNPcZxCFumIQWQuFIFFIgIPyPCVCCyPFgKFuISyRRLRSyDAADA",
"mUNJUcz^FNJFmJgKYxryvHHxCHuKLrsImFF*tHuLc*HHuFcrHHzHHcZxCZscJJJ~uFYCPPcPPyKCfDcyPHuIFuTFuRRPTSqDAAAD",
"NUNBUmt~JFIFFIFFYcrvZPJxmHsIHeuIFFF#uHuNFwIINHFuJHlFPZZVCFgmJIQQuFYFFIgPPfKCVDfyPFuIFCTFfRTCPfyDSTDD",
"mUBUUct~FJQuuHLHJxrHFvHxuFeFKeuKFFcwuHmKHwHIcHFtHH4vPcPxyIuuIFJIrFIuCRFPPCCPCSKfTmgFuFPICRTKSuyCTAgT",
"mUUJUcr~NJItwLFFHxrFFxHycHuKItmImucwuHuIHrJIcJFtYHrNPZPZyTuuQGGJtFIuuICPCyCCyfCfICmKCFPPfPPFSffSfTfg",
"m!JBIze~NFQuwFuuZx9NccHzuFuFHtuGFuuwuHuHHrHIcJFzNNrcHxHVyPruINBWrK^uuFfPCuCKffCfIccHFZPFuPKCgfySTfgg",
"N!INHmr!FJYuuIsgNxwccZYxuFecFeuFcmuwtHuKIwIHcPFtNvrcZxVxyPruQNGIuKLuCFgICCKSfyCgPccKcZKZfPPSSfyVAAAg",
"z!UNJzeINGQuuIFscxwxccYymHumFusmKmC2yFtFHwFHcIKtFFrFFcZxyPruImGJuuFuFIfPKCPPyqgfPuFKcFKCyKFCCfyCgASC",
"z~JNJurHcFIusIKuZcwxxcHruHeuKucuFFs8rmruHwmKuHFtNNlHHxVxuPruQFGJuuuuFIgFSCKFyrfqPguFccFC@yfyfyySfASD",
"vUUvNzwJmFIuFQFyZcrtxxYrtFryFeutFcm2rCrCI*cmuHFrcNrFFyCyfRuuINGItyCcPPyCCCCCyffrIugFufFC8gCfffqSCCKP",
"z!UbFzeJHJ^mKQFtFc9yrzHrxKyiGuutmcu8eFrsK>uFuHFtFFvJHxVuCIusQmMJeuFFHFrCKyCCffSuIuuCycSFfIKCSfqgSSPD",
"M!!mWbtUNsIJNHmuNmrHvvZ99HlrmrsQFmu2tmrmK2NJmJHrcFcZcyFFcImuWBbJttHNFFwCCyuCyCZyFFyZx9DfggggA00VVCSS",
"B!EB!bz~NsUHNINuFmlHFvH=lZ4rNesQGmu#tNrcH2mFcJHtcFxFFuHNNJmtINpJetHNmNwFNrucyyCyFcyZxqFCyLgggq0kVVCS",
"B!!BWmt!NtIJcINcHHtFvxH99HwrNesQFNm2tFrmJ2NFcIHecFzZFrFFcJmtWNtJrzJmFFrFFruCycCuFCyZV9Kcigggg00kVVVC",
"B!EB!mzUBtIHmHNuHFtFvvv==HrtNruQFmu2tFecH2NHbJFrCZlFFrNmtJutJNtNeuHumFtFFyuCycCuFuyVyqSfgKTgA00kffCC",
"B!BM!MtJGzIJmJNcHNzcvxN==FrrFtsQGmc>uFecHwFJpHFeuFuZmrmFtFmtJBzmrmJmmJtHZtfCucCfKgrCyqCyggKgCq0kfuuC",
"n!BM!m5JGmUHcHmcHZrculF9*ZrtHesIHNc2tJtNJ2NHmINruCrZFrFFcJmt!Bbm2cHtcHuKFxucycCyuuyCyqCygdLgCq0kyffg",
"MWNM!mtNHm!FcHmuHvrvxvHr*NruJtmJFFc2tFtNHwNFcHNruFrNmrFmmHmmUBzNrmItmHuHNucCyCCugyqCy8gygLLgcqkxfffF",
"bEMbWm5MImUNuJNxHcwvzlHr*NwtFtcIJmmwtFtmI2NJmHmwFCuCFrmmpImc!JbN2NJtmJmFZlcCccCxuurVfwgyiTLdc90xyfCC",
"b!!MJaeJJmUNtFurc9lccHNtrcerNceUFNHttHmcFtcFNNmwcCxHctJcNHmtJJmMNtHucJCHccFPccCuKwrfq9xygLLgdyqVyfCF",
"b!!MJbtJJmJNrNtrvrtvcNFlrmreFctUFmHttHmmmtmHmmmwCczHurHmmFmsJNmNcuHtmJNFcuFFyxCuCryfqyfugLLdgy9cycCF",
"b!BmGt5NJsImrNzrv9lccNFuemxtHNzHJmHerJumNtmFcmuwFuyFcrHmcJmmBNbJztJcmImFVxZFycCyKyqf9yfudddddy9Vyugc",
"b!BnBt5NHuJmtNxrv99ccHHtrNtmHFrYFmNw2Fmuceumumu2cCtKurHmtFmmNmbJteNcmHumcccZyyCyCr8fqygugdQddurxyucC",
"p!BnNp3NBuQFtHmtx=9lcHHteFutJmrJFcNwwJumctummuu*FCyFuwFcrmmmNmbJ4eHNmIuxcrcCyycySrqy9xxxsdLdmr9ZucFg",
"p!WbBt3NJpJFtJmxv=9lxHGtemutHmlJFmmw2FmtctuNsmc2FuuFuwFctmsmBMbNreHmmJuucryuyyZyFyqVqyccgdGdmlrccuum",
"b!WbBt3NNtHNuHmxv==lcHJtemtuFcrJJmm*2mtmmtuNcmc2FcrFu2NurscmJNmNerNmmJtuxwryrxCcKy9y9yCmudGdmtrvuuCu",
"b~!mBtwFmtHFtFctx9=rcJNtuGteFurJNcm2*NucctsFmmc2ZcxHuwNutczzBJbz2wNccJuuuwwyycCyKyyxqyCuiEdMsurvCuug",
"tIJFHt#NctJcrNmccl*tFvHcwNr4cr4YJbb%4Nlzs3sGtuN*ZurZrwcrwFemJbNz>tFiNFwcuwryqyCyFuwcy9ZresGdFt9cuCug",
"tJJNHt*FNtJmrmuccr*xHNFrwvrrcr=HJbv*=vlluwsGtcv9Curcu2mtwmemJmmz#tmumJruu8ry9yCxguwcx9vxtgFFFy9cCugf",
"rJFcFt2FcrJcwmczvx*tHcFlwcrwvr4FBpm<=vzls3sFisN=CcrZywFt2mwuJbmz:tFtmHrcywyr8yCcFuwCl9VxuFGGsr8Vuffu",
"rHmuNr2HmrFurmxtmc*vFvcwwclwcr*NMpm%=vlls3iGtuc9CurFuwNuwmesBmbt3tBucJrscrrq8yCCdsrux9ZteFGsFr*yfufu",
"rHNtNw2HcwNtwNteNc>cHNcw4crrct2Hbbv%=v4lu3sMtcc=CurZuwmrrcemUbNzwtFtmFrccyrw88CmFswcl9vrtFdFCw*xyufu",
"2HNcNr*Hmwmrwcyrcu2cHcN2wcttFrwHmbb<%vl4s:sGeuv=CurcrwFtrNemJmNb2rmruFrmcruy88CZFu2x99V9usdgmw=xuyyy",
"wHFcKr2mcwctwNtrcz*cJNN44czzNz4Jbtv<&v=lt3sMtuc=uywcywcu2NemJbmz2ruwumwucrur*8CFsu*x9=c9eFsFcr=xyeuy",
"rHFNHt#Ncwcr2ctrct*mHNvrwNzyFz4Nppv%=l44u3iGeuv=uywct2ct2crbJcmz:rcwumwuuruy*8ccst*x9=xwwgdsFr9xyyyy",
"2FctFt2ct2Zuwcrwbt2zztN44NttNz2Nbbb%=l=lh3tmeuc&cc8ccrurtts2Fttc#yNrycwuuwuurrmugeru99lrrFdFcw8cyuuc",
"2Hmumr*cu*mtwmt4ct2mzzN2rbt4Nt2Nbmm%=vllb3sMeum*yu8ucrteruu3Bezb@yCwuc2urwturumcswrx999rwussCr=xwruu",
"2Ncrcr*ut2NtrNztmz4bmbN5tmz5bt<NMMN%=llzmesstuc*yu*uururttu3Ntzm8rCyyC*xrwruwtmcswru99xreuuscr&y8ryy",
"2Fctme*mu2FceFxrmbtmmtJ45mttNz2NMMv%=llzm3sGtzv*ry*uuwuttumwBttc@ycwrc8urweuwtmmswru99lyeuuicr8r8rrr",
"2FmtNr2ccrFcrNzwNb5mbbN5tv55bl,MMMv%=vllF3sMeux&wy8uu2urrtmwBtbm8qu8rc2xrweuwtmsgwty99lrysssgt&99wrr",
"wHFumrwmNeHmrcr4cz<bmzB45bt5Mt3mnMn%=llzmesGeuv$yuwuuwtutts2Nttz*8V88y*uywet2emtu3wy99xxegigFw=y8ryt",
"2Fmumu*uurHcrmtwbt<mbbJ5lbz5mz2MbbN%=v<lmwisetu$ycwcu8utrtc>Nttz8qV89y8ytwut2emtswwy99xrrudsuw@r4rux",
"2Fctcr#cuwNuwNtrz5,bvbBl5b55bz2Bbbv%=l=ls3sswexOucrcu2tuwrz2mett*9x8wy*uuwut2rtetwetwrlzwsssu#@yrruc",
"2Fcrxr8yywFmtFietz4cmzNt3bttBt3Mbzz<&zlzNeesxll%rmrty2xrwcrwNm2t$=y8xvwzx4rcrtctmt2ce3NiesFsm2@trtcm",
"2Nmrcr*yyyFctmpezz4zmmN54mptGp3mnbb==vzzNwestrl&4bebtwuwrcr4Np3tO=r4rN4xx2rtremcN4>zt2mtessFmw*retbc",
"<mmrcr*xgyFNuGmtzm<zmzm55NbtMp3napb<%vlzmeemtrl&rbezt2xrwcrwNb,t**l*lc=tu*rtremuv<>zt2ns3smmsr#trtum",
"*mNrcr8ycwKmpHa5zc*zmNBl2btpJseWsab%&v4zm3ectr9*tbtzu2lw9cr4mz3t*4x=rZ2xr*2t4euzN5>be2mpessmsw#t2ett",
">Nmlcr8uuwFmtJpezz<tmzNt2mttBm3Gasm2%l5zseeser9=4b5zt*xw9cwwmm2t*rl=rc=zr#2twtutv5>zp2dpessum2#reets",
"%NNrNx2xywmusGatNb*lmNN55NppBp2mpam>$llzmwesr99&tmtbtwrw*cr2mt>t*wr*lc4ct#rtwwmtm4<ze2bitspicr#twtup",
"%mmzmy*curFsaJs5mb%5mmNtemptmt:sapm<$l4zsetsr4l&tbtzu2ywwcw2mb>t2*t*rc4ct2wtwwttml*zp2miisuts2*eetsm",
"+bmbNt8xgrmmsQnpmv%lNmNt4ct5nt:appN<$lrtuwtsw=l&tbtzt*yw8cr2mt>p%=r*rv4cu2wteemtb4<zt2npesutsr*rrtcm",
"-zmbmrwctwGmtMdacz$5Nzm54t4eBp2patb**l=zmeeuw2=*tbezc2yy*yw4tbet2*l<4xtzt25t3tbtvz%z53Bpsssssw#wttss",
">bmbct2cuwBmpMnabr+4czNt2z5eMt:satb%%l<zm2eeww9&zbtmu*tr8rw2uz5z%*z>4bzzt2tt2ebtb5<zt5Btessumr#wwetu",
">zmmmr2cuwGmpGnpbz&4bzNt3t3emi:spip%$l4vBeeiew9=tbrpt2ur2tr2zmt52%z44mtmt5tp33btz5<zt3nteeisme*w2wtt",
">hmbze2cs2BspEapzz+4mzm5>z53mpenp5p>&l4zFetutw9&tb5zu*ry8xr4tm6z2=z44mtzt4pt22ptzl<zt3de,tuumw#2rett",
"-hbmzt2tswBspEa6btO4mtNe>tt3mt3sppz%%l<zFeesrrl&tzrzu>yr*yw2ttt54<z44btbp55t:,ppz5>zt3s3:esuNe#22etu",
",bBbm44xmemspEa5zzX4zzme*mt3bi3Ma5b<&l=zmeesr49&tb5zt*rr*r2*tm5t<%z44z5bt5t6;>ptzl%ze,se:tiumw#w32ee",
"<nBnm52mm2mapEa6br+4czmt;mp2it3mnpb%%l=zmwetr49&tp4tz*yr8rr2tc5t<2z<<z5tt5p5+;tbb<>ze>ae:eetu2+w22tt",
"<nBbme2tm3MapWa3ztO4ctmr>Np2tt3snpb%$==zm3etw4=&5b3mt*rw2ur4bb6p2%z4<z5pt5p5;>tzbl*e2*peeteeu2&wetut",
"5bbMm53bp3bbpBb3ur*yrrF2wmt2ue2NasN4*4=zxwet*w8Otn6ht2t42ur4zb5h2%5<5b1b6554#>trct#et*etediii2*2e5pp",
"5bMMM5,bp2mbpBprxt#yrrFw2ce2ttwNipm2%94zzeetww9Ozn1z53t42te<bb6t<2t335,bb1e4**xrpt%rr*tt3aiiir$=25tb",
"5mMMN525b3bb5Bb5uy*yrrFw#mtrsu3Nipm2%l=lueee289@5n6ht2t4*zr<bb654>t4565bp53r#*ywct*rl*te:siit2O*45tp",
"<bmBB53pb3mppNp5uy@rrwF2#uewmt>p65z*&9%lteeew*9O6n1b52t22te3bb6b52z43h6b55e4#*twte%rr*reeiiit<&*25bb",
"5bMBB53pm3bp5Mzesr#rwrmw#ut2te>tp3p%$l=4t3ee82=O5n5ht>tw2t4<bbp642t55b5b5354@*rwut#tr*ee3dsis2**2etp",
"<bbMBp3pn3bt5mp2ur@wwwNw>stwt2+5a5p>%4=4t:ee:w=*5b5p52t2*z55bnhh52t4,p5j5,e4#=rwte*rt*ww3iipmr*=3ttp",
"5bmMMe3bb3bt5Mb5me@w22Fw:ct3p3;pnpz%%l%4t23e**9$5b5te%t22t55nM6b<*t<,p1b5,e5**r8te#rl&43:iiim4&**2tt",
"3bnmm53bm5b55Mteur@wwwm22mp3me,mn6h<%<*<e:3e:w4Ozb5zt*tw%t51nnjb3>t<,p16533r;*r2tw+tt*r3:iipt4$*>44e",
"3BMpMt5mn3bp5m52tr*rw2Fe3st6n3:Ma6pX%z4lt;3s2*4%<t5bt2r22t43bn7h22t<,5,p5,2r:*8%t2*4wrtc:idi:3@**3we",
"2BMbMp,mb3bbpm55tw+eerN5ept5m3;Eapp;-l4<i;id3*l$4t2zt*r2>t5,6n7h>%t<,5,p6,52+*8&r22w44rt:iiii:$*22we",
">BmbBp3bm3mbtnt2te%rr3N44be5n5>Enph--ll16;3n224*4t2zt*r4253,jn7h,>t4,5,b5,3r#*w+u32*4=4eoiiit4*=*w2r",
">MMbBt>bn2bp6mp3ut*eewNe3bt5n1;nnjb>%l11e;eb325&4t3tt%r2>t5,pj7h32z5>5,h5332**8&tw*4w*2eoidiswO=*22w",
";MnbJp3bm5nbpm55tt:e25Be3a36M3:En6a--z45p;iM32r&4t2rr*r4>t11an76<2z4,5,pp,e4**8*ue>8==2e;idit2$***ww",
">mmpMp5bm3mbtM55ct*er5N33ai3M,-Ej6p>-z555;6Ee4l%4t<tr*r22e1,7E77<2b436,b5,35#*2@ue2ww4re:idds*$&w*w2",
":bbtmp3bn<mbpM53ct2te3M33m36a1-Ej7hX%l366;id555&rt4rr+rr2t5,7j7752z<36,65,32#*8*ce2wr4ei3isit*O=42w*",
">Mbpnz3mM5mbpMt5st>e53m53p6aa1-Eh1lXXh553-aE5<t%4t*te+r2%5517j7752b5>5,p533r#>2@b52rre5ieippp>$4rww2",
";mbpMp3mb>pttMp5p5;355n53b65b5>Mm2r+*z5t5X3b,,4+5l>zswe2>35>hhnh,,b33p3ap>34%22+b,,1115,-pMpp5:>tr42",
"+bbpmp2mm>bp6nt3b5;515M15b55b5>Mzw4+*z4t5+2b515X55%ttwt3>5b-bhjh>,p1,a5a5>3<224$z,,6,,6,-nnpp1:>t44*",
"-pptb5>ab2bpemt5b5>555b51b55b5,bt42++t3tt;5m135+5l%tz2t3>25-blhh,,b5,p3ap,54224%h,,1,,61-hnpp3;,trw2",
">bb5M52pm,b55b53b6>555M<5b51b5,bz24O#t2eb>tM555X5h>ez5t223h-h1hh,,n3,aiai,552*5%h,,1,155-bb63,;2rrw4",
"2matm52ba5m53tt3b5>et5M33p33b3>bz4r+*c4tb>pM516>z1,5z2pe23p-bhhh,,b53a5ai3et>24*n<11,,65>pb5p,;:e442",
">Mm5b5>apem5>bt3b5>555m53t3>t5>tcwr++t5tz25m555>zl>5t3se25p-b5hh,,b,,73a5,35*>4%h<<1,,51;pat32;2trr2",
"3ma5b3>pb6M5;p5253+454m<>z>%t5Xtc2w+#t2eb>5m,55>z5%5t2t3:33-h<h1,>h,,i3pe,5t>%<>h<<5,<55+pp33>;:e442",
">mp5t3;tbtM3;a324>X45em<<t>>z<%tt22O+t2wz%5b<5b,<<+<r;e2;:5X1,77>,5,:7,p3,35%&2%h<<5<<51+pp33:+2t522",
">bbeb2;pm5M3;pp,2e>tt4ze2z>+te*ttr=++22>2>tb555,<<%>ct22:23X6511,-5,1a,55:5p:>2$z1,5,>55;,p322oe2325",
">mp3b3>tb5b3>bt,4t#243z52t2;t2+5tt2&+*22e>>51z5>24>2t5:2:,5-611,,-1,5p315255>*3%l1-z,-b<+>5233o242<t",
",mp5p,+5b3m5>bt24e+*22tr%t2*t2+2rr*+#22>z%+>155><5<<e2;3255-b661>-513a,:3,33>>2+h<>5>$t<+>e*22 2e55p",
"2np3t2;5t3nt3m3>rr+2w2t2%t2#t2@tzr2O+2225>>3155-<zz4tw:e23p-b161-X1537:,3>>2#*4&5<%5>-z2;2z22row335p",
"3mb3p>+pp2bp5b5*4r*rz4r**t2Orw2Ntrw+%*223>5t555>>zt<t42p33p-h111--556i;:3:,3>*<%l<>52+t3>wu2wwow,>35",
"3Bb5p3>pt;bpeb5>ez2tmrt&*t*Ow44Hzr4*#232>%tb55h,%4<3423t33t-b17,-;6166;,6>:>%24%5<%5,+t<+>e223 >,>,5",
"5Bb5p5>mp>bbtb33tz*tzrt&*e2+44*Fzt2*+242e>5t55t,><>%w23e235Xh11,>-6566:,p:>>>4l%l<%5*%t2#2t2w2 2>;>5",
"5Mb5b5,Mt>pp5b<3cc%4z4t*+r2&w2%ztt2+*243z,>31zb>3<2>ew3t255Xh11,>>a6:7:1p2;2>r5%5<%t2+t2>2t2ww w2>25",
"bbbhnl,1z<Mz1b53me<<<4=*%9*2r21bbl5%%t,>t>4t555%>222<235><t-h15,,-j5<hh<h>>5<<4>44Or9$w4X6612>@@3>23",
"hbhhhl,hz1b55b53ze2<<<<==w88t<,bz5tX+z>>5*<t<t5%2*232>35,56;n551,-hh<hl1h>>13352<4$4=$*<X6713>@*w#2r",
"1zhlh1>hh,bz2b53t52<4l<=8w88r<,bz45%%5<>5><5<t5%2>34<>3t,5p>n55,<>b1>hh1z>>5355><<$r9$*<X66,3*@*2*>2",
"1h1hh1<zz1Mh3b53e52>l<<<8w:8e,,bb55X+z2>t>4r455+2*22222515p>n5631<b1-hz1b>,52252<<Orw$=>-77,3*@+2>2e"
};
